<svg width="22" height="18" viewBox="0 0 22 18" fill="none" xmlns="http://www.w3.org/2000/svg">
<path d="M21.4764 6.68941L20.9209 5.71909C20.8959 5.67632 20.8551 5.64516 20.8072 5.63243C20.7593 5.61969 20.7084 5.62641 20.6654 5.65112L19.4772 6.34487L17.642 1.27769C17.5451 0.975329 17.3546 0.711587 17.0981 0.52454C16.8415 0.337494 16.5322 0.236822 16.2147 0.237061H6.0592C5.24591 0.237061 4.52404 0.762061 4.27326 1.53784L2.52482 6.34722L1.3342 5.65347C1.29127 5.62876 1.24031 5.62204 1.19245 5.63477C1.14458 5.6475 1.1037 5.67866 1.07873 5.72144L0.523258 6.68941C0.471696 6.77847 0.502165 6.89097 0.591227 6.94253L2.00685 7.76753L1.66701 8.70503C1.63888 8.78003 1.62482 8.85972 1.62482 8.93941V17.1003C1.62482 17.4683 1.90138 17.766 2.24123 17.766H3.8256C4.11388 17.766 4.36466 17.548 4.4256 17.2433L4.60607 16.3597H17.3936L17.574 17.2433C17.6373 17.548 17.8858 17.766 18.174 17.766H19.7584C20.0983 17.766 20.3748 17.4683 20.3748 17.1003V8.93941C20.3748 8.85972 20.3608 8.78003 20.3326 8.70503L19.9928 7.76753L21.4061 6.94253C21.4486 6.91796 21.4798 6.87768 21.493 6.83034C21.5061 6.783 21.5002 6.7324 21.4764 6.68941ZM5.18732 11.555C4.66935 11.555 4.24982 11.1355 4.24982 10.6175C4.24982 10.0996 4.66935 9.68003 5.18732 9.68003C5.70529 9.68003 6.12482 10.0996 6.12482 10.6175C6.12482 11.1355 5.70529 11.555 5.18732 11.555ZM14.2811 13.3128C14.2811 13.416 14.1967 13.5003 14.0936 13.5003H7.90607C7.80295 13.5003 7.71857 13.416 7.71857 13.3128V11.3441C7.71857 11.241 7.80295 11.1566 7.90607 11.1566H8.84357C8.9467 11.1566 9.03107 11.241 9.03107 11.3441V12.1878H12.9686V11.3441C12.9686 11.241 13.0529 11.1566 13.1561 11.1566H14.0936C14.1967 11.1566 14.2811 11.241 14.2811 11.3441V13.3128ZM16.8123 11.555C16.2944 11.555 15.8748 11.1355 15.8748 10.6175C15.8748 10.0996 16.2944 9.68003 16.8123 9.68003C17.3303 9.68003 17.7498 10.0996 17.7498 10.6175C17.7498 11.1355 17.3303 11.555 16.8123 11.555ZM4.15607 6.79722L5.85998 2.11206L5.8717 2.08159L5.88107 2.05112C5.90685 1.97378 5.97716 1.92222 6.0592 1.92222H16.0811L17.8483 6.79722H4.15607Z" fill="black"/>
</svg>
