<svg width="20" height="20" viewBox="0 0 20 20" fill="none" xmlns="http://www.w3.org/2000/svg">
<path d="M19.2837 7.27561L13.3329 6.41077L10.6727 1.0178C10.6001 0.870141 10.4805 0.75061 10.3329 0.677954C9.96257 0.495141 9.51257 0.647485 9.32742 1.0178L6.66726 6.41077L0.716481 7.27561C0.552418 7.29905 0.402418 7.37639 0.287574 7.49358C0.148735 7.63628 0.0722277 7.82827 0.0748646 8.02735C0.0775014 8.22643 0.159066 8.41632 0.301637 8.5553L4.60711 12.753L3.58992 18.6803C3.56606 18.8182 3.58132 18.96 3.63396 19.0896C3.6866 19.2193 3.77452 19.3316 3.88773 19.4138C4.00095 19.4961 4.13495 19.5449 4.27453 19.5549C4.4141 19.5648 4.55368 19.5355 4.67742 19.4701L10.0001 16.6717L15.3227 19.4701C15.468 19.5475 15.6368 19.5733 15.7985 19.5451C16.2063 19.4748 16.4805 19.0881 16.4102 18.6803L15.393 12.753L19.6985 8.5553C19.8157 8.44045 19.893 8.29045 19.9165 8.12639C19.9798 7.71624 19.6938 7.33655 19.2837 7.27561ZM13.5813 12.1623L14.4274 17.0912L10.0001 14.7662L5.57273 17.0936L6.41882 12.1647L2.83757 8.67249L7.78757 7.95295L10.0001 3.46936L12.2126 7.95295L17.1626 8.67249L13.5813 12.1623Z" fill="#FAAD14"/>
</svg>
